<mxfile host="app.diagrams.net" modified="2021-01-24T14:36:30.334Z" agent="5.0 (Windows NT 10.0; Win64; x64) AppleWebKit/537.36 (KHTML, like Gecko) Chrome/87.0.4280.88 Safari/537.36" etag="j7zxEvdNigkShtAwSRKj" version="14.2.7" type="github">
  <diagram id="C5RBs43oDa-KdzZeNtuy" name="Page-1">
    <mxGraphModel dx="1422" dy="762" grid="1" gridSize="10" guides="1" tooltips="1" connect="1" arrows="1" fold="1" page="1" pageScale="1" pageWidth="3300" pageHeight="4681" math="0" shadow="0">
      <root>
        <mxCell id="WIyWlLk6GJQsqaUBKTNV-0" />
        <mxCell id="WIyWlLk6GJQsqaUBKTNV-1" parent="WIyWlLk6GJQsqaUBKTNV-0" />
        <mxCell id="FmAUdRf-78yvikwDYPd_-12" style="edgeStyle=orthogonalEdgeStyle;rounded=0;orthogonalLoop=1;jettySize=auto;html=1;exitX=1;exitY=0;exitDx=0;exitDy=0;" edge="1" parent="WIyWlLk6GJQsqaUBKTNV-1" source="FmAUdRf-78yvikwDYPd_-1">
          <mxGeometry relative="1" as="geometry">
            <mxPoint x="986" y="520" as="targetPoint" />
          </mxGeometry>
        </mxCell>
        <mxCell id="FmAUdRf-78yvikwDYPd_-1" value="" style="rounded=0;whiteSpace=wrap;html=1;" vertex="1" parent="WIyWlLk6GJQsqaUBKTNV-1">
          <mxGeometry x="830" y="520" width="156" height="40" as="geometry" />
        </mxCell>
        <mxCell id="FmAUdRf-78yvikwDYPd_-2" value="API GATEWAY" style="text;html=1;strokeColor=none;fillColor=none;align=center;verticalAlign=middle;whiteSpace=wrap;rounded=0;" vertex="1" parent="WIyWlLk6GJQsqaUBKTNV-1">
          <mxGeometry x="863" y="530" width="90" height="20" as="geometry" />
        </mxCell>
        <mxCell id="FmAUdRf-78yvikwDYPd_-3" value="Authorisation&amp;nbsp;" style="rounded=0;whiteSpace=wrap;html=1;" vertex="1" parent="WIyWlLk6GJQsqaUBKTNV-1">
          <mxGeometry x="1280" y="400" width="120" height="40" as="geometry" />
        </mxCell>
        <mxCell id="FmAUdRf-78yvikwDYPd_-7" value="Encryption" style="rounded=0;whiteSpace=wrap;html=1;" vertex="1" parent="WIyWlLk6GJQsqaUBKTNV-1">
          <mxGeometry x="1280" y="520" width="120" height="40" as="geometry" />
        </mxCell>
        <mxCell id="FmAUdRf-78yvikwDYPd_-8" value="Communication" style="rounded=0;whiteSpace=wrap;html=1;" vertex="1" parent="WIyWlLk6GJQsqaUBKTNV-1">
          <mxGeometry x="1280" y="640" width="120" height="40" as="geometry" />
        </mxCell>
        <mxCell id="FmAUdRf-78yvikwDYPd_-10" value="frontend" style="rounded=0;whiteSpace=wrap;html=1;" vertex="1" parent="WIyWlLk6GJQsqaUBKTNV-1">
          <mxGeometry x="370" y="520" width="120" height="40" as="geometry" />
        </mxCell>
        <mxCell id="FmAUdRf-78yvikwDYPd_-14" value="" style="endArrow=none;dashed=1;html=1;entryX=0;entryY=0.5;entryDx=0;entryDy=0;exitX=1;exitY=0;exitDx=0;exitDy=0;" edge="1" parent="WIyWlLk6GJQsqaUBKTNV-1" source="FmAUdRf-78yvikwDYPd_-1" target="FmAUdRf-78yvikwDYPd_-3">
          <mxGeometry width="50" height="50" relative="1" as="geometry">
            <mxPoint x="970" y="550" as="sourcePoint" />
            <mxPoint x="1260" y="420" as="targetPoint" />
            <Array as="points">
              <mxPoint x="1140" y="450" />
            </Array>
          </mxGeometry>
        </mxCell>
        <mxCell id="FmAUdRf-78yvikwDYPd_-15" value="" style="endArrow=none;dashed=1;html=1;exitX=1;exitY=0.5;exitDx=0;exitDy=0;" edge="1" parent="WIyWlLk6GJQsqaUBKTNV-1" source="FmAUdRf-78yvikwDYPd_-1">
          <mxGeometry width="50" height="50" relative="1" as="geometry">
            <mxPoint x="1000" y="539.29" as="sourcePoint" />
            <mxPoint x="1280" y="539.29" as="targetPoint" />
          </mxGeometry>
        </mxCell>
        <mxCell id="FmAUdRf-78yvikwDYPd_-16" value="" style="endArrow=none;dashed=1;html=1;entryX=0;entryY=0.5;entryDx=0;entryDy=0;exitX=1;exitY=1;exitDx=0;exitDy=0;exitPerimeter=0;" edge="1" parent="WIyWlLk6GJQsqaUBKTNV-1" source="FmAUdRf-78yvikwDYPd_-1" target="FmAUdRf-78yvikwDYPd_-8">
          <mxGeometry width="50" height="50" relative="1" as="geometry">
            <mxPoint x="970" y="560" as="sourcePoint" />
            <mxPoint x="1220" y="590" as="targetPoint" />
          </mxGeometry>
        </mxCell>
        <mxCell id="FmAUdRf-78yvikwDYPd_-18" value="VPN IN" style="rounded=0;whiteSpace=wrap;html=1;" vertex="1" parent="WIyWlLk6GJQsqaUBKTNV-1">
          <mxGeometry x="600" y="420" width="120" height="60" as="geometry" />
        </mxCell>
        <mxCell id="FmAUdRf-78yvikwDYPd_-21" value="" style="endArrow=classic;html=1;entryX=0;entryY=0;entryDx=0;entryDy=0;" edge="1" parent="WIyWlLk6GJQsqaUBKTNV-1" source="FmAUdRf-78yvikwDYPd_-18" target="FmAUdRf-78yvikwDYPd_-1">
          <mxGeometry width="50" height="50" relative="1" as="geometry">
            <mxPoint x="1090" y="760" as="sourcePoint" />
            <mxPoint x="1140" y="710" as="targetPoint" />
          </mxGeometry>
        </mxCell>
        <mxCell id="FmAUdRf-78yvikwDYPd_-22" value="" style="endArrow=classic;html=1;entryX=0;entryY=0.5;entryDx=0;entryDy=0;exitX=1;exitY=0;exitDx=0;exitDy=0;" edge="1" parent="WIyWlLk6GJQsqaUBKTNV-1" source="FmAUdRf-78yvikwDYPd_-10" target="FmAUdRf-78yvikwDYPd_-18">
          <mxGeometry width="50" height="50" relative="1" as="geometry">
            <mxPoint x="490" y="540" as="sourcePoint" />
            <mxPoint x="540" y="490" as="targetPoint" />
          </mxGeometry>
        </mxCell>
        <mxCell id="FmAUdRf-78yvikwDYPd_-23" value="VPN OUT" style="rounded=0;whiteSpace=wrap;html=1;" vertex="1" parent="WIyWlLk6GJQsqaUBKTNV-1">
          <mxGeometry x="600" y="620" width="120" height="60" as="geometry" />
        </mxCell>
        <mxCell id="FmAUdRf-78yvikwDYPd_-25" value="" style="endArrow=classic;html=1;entryX=1;entryY=0.5;entryDx=0;entryDy=0;exitX=0;exitY=1;exitDx=0;exitDy=0;" edge="1" parent="WIyWlLk6GJQsqaUBKTNV-1" source="FmAUdRf-78yvikwDYPd_-1" target="FmAUdRf-78yvikwDYPd_-23">
          <mxGeometry width="50" height="50" relative="1" as="geometry">
            <mxPoint x="1090" y="760" as="sourcePoint" />
            <mxPoint x="1140" y="710" as="targetPoint" />
          </mxGeometry>
        </mxCell>
        <mxCell id="FmAUdRf-78yvikwDYPd_-26" value="" style="endArrow=classic;html=1;entryX=1;entryY=1;entryDx=0;entryDy=0;" edge="1" parent="WIyWlLk6GJQsqaUBKTNV-1" target="FmAUdRf-78yvikwDYPd_-10">
          <mxGeometry width="50" height="50" relative="1" as="geometry">
            <mxPoint x="600" y="650" as="sourcePoint" />
            <mxPoint x="650" y="600" as="targetPoint" />
          </mxGeometry>
        </mxCell>
        <mxCell id="FmAUdRf-78yvikwDYPd_-27" value="DATABASE" style="rounded=0;whiteSpace=wrap;html=1;" vertex="1" parent="WIyWlLk6GJQsqaUBKTNV-1">
          <mxGeometry x="1640" y="510" width="120" height="60" as="geometry" />
        </mxCell>
      </root>
    </mxGraphModel>
  </diagram>
</mxfile>
